<?xml version="1.0" encoding="UTF-8" standalone="no"?>
<svg
   xmlns:dc="http://purl.org/dc/elements/1.1/"
   xmlns:cc="http://creativecommons.org/ns#"
   xmlns:rdf="http://www.w3.org/1999/02/22-rdf-syntax-ns#"
   xmlns:svg="http://www.w3.org/2000/svg"
   xmlns="http://www.w3.org/2000/svg"
   viewBox="0 0 759.99997 164.99999"
   height="165"
   width="760"
   xml:space="preserve"
   id="svg2"
   version="1.1"><metadata
     id="metadata8"><rdf:RDF><cc:Work
         rdf:about=""><dc:format>image/svg+xml</dc:format><dc:type
           rdf:resource="http://purl.org/dc/dcmitype/StillImage" /><dc:title></dc:title></cc:Work></rdf:RDF></metadata><defs
     id="defs6" /><g
     transform="matrix(1.3333333,0,0,-1.3333333,0,164.99995)"
     id="g10"><g
       transform="scale(0.1)"
       id="g12"><path
         id="path22"
         style="fill:#ec7924;fill-opacity:1;fill-rule:nonzero;stroke:none"
         d="m 217.54996,52.379916 c -42.01,0 -81.53,16.37 -111.27,46.070004 -29.700004,29.69 -46.030004,69.15999 -46.020004,111.17999 0,41.99 16.4,81.48 46.110004,111.18 6.22,6.26 13.24,11.98 22.15,18.01 2.68,1.86 5.16,3.35 7.72,4.91 5.82,3.34 11.62,6.39 17.03,8.87 2.95,1.32 5.97,2.67 9.16,3.89 5.65,2.1 11.97,3.98 19.17,5.69 1.44,0.38 2.71,0.72 4,1.09 0.81,0.22 1.58,0.49 2.41,0.69 l 35,2.38 c 4.44,-0.2 9.19,-0.75 14.26,-1.42 l 2,-0.26 c 1.19,-0.15 2.8,-0.28 4.41,-0.36 l 1.41,-0.1 1.6,-0.32 h 1.39 c 2.56,-0.1 5.12,-0.15 7.65,-0.15 60.35,0 119.91,25.7 163.43,70.48 43.34,44.58 67.22,104.55 65.5,164.57 l -0.04,1.78 -0.34,1.86 c -0.32,1.67 -0.42,3.38 -0.53,5.06 -0.15,2.02 -0.32,4.02 -0.57,6.05 l -0.39,3.52 c -0.34,3.03 -0.67,5.98 -0.88,8.99 l 2.69,35.13 c 0.17,0.88 0.48,1.68 0.73,2.53 l 0.63,2.17 c 1.61,6.65 3.34,13.33 5.85,19.78 1.29,3.68 2.53,6.39 3.87,9.16 2.8,6.14 5.7,11.72 9.11,17.45 1.49,2.48 2.93,4.99 4.63,7.43 6.36,9.26 12.13,16.34 18.12,22.34 29.7,29.69 69.18,46.04 111.26,46.04 41.99,0 81.53,-16.33 111.25,-46 61.24,-61.31 61.2,-161.09 -0.14,-222.43 -6.2,-6.21 -13.23,-11.92 -22.17,-18.03 -2.61,-1.78 -5.09,-3.26 -7.58,-4.73 -5.65,-3.37 -11.35,-6.37 -17.02,-8.99 -3.08,-1.38 -6.15,-2.79 -9.12,-3.9 -6.02,-2.23 -12.4,-4.14 -19.1,-5.64 l -3.77,-1.06 c -0.85,-0.23 -1.69,-0.5 -2.53,-0.73 l -35.35,-2.5 c -4.14,0.17 -8.48,0.73 -13.08,1.32 l -3.14,0.38 c -1.05,0.18 -2.71,0.29 -4.36,0.39 l -1.25,0.12 -1.8,0.35 h -1.42 c -2.58,0.09 -5.11,0.12 -7.67,0.12 -60.34,0 -119.88,-25.68 -163.38,-70.45 -43.37,-44.6 -67.24,-104.63 -65.53,-164.65 l 0.05,-1.79 0.33,-1.77 c 0.33,-1.7 0.4,-3.38 0.54,-5.09 0.15,-2.02 0.33,-4.03 0.57,-6.02 0.06,-1.19 0.31,-3.36 0.58,-5.48 0.27,-2.41 0.58,-4.75 0.58,-7.16 v -0.85 l -2.53,-33.67 c -0.17,-0.7 -1.29,-4.59 -1.61,-5.8 -1.7,-7.25 -3.63,-13.69 -5.77,-19.45999 -1.17,-3.22 -2.36,-6 -3.75,-8.89 -2.73,-5.97 -5.7,-11.7 -9.07,-17.52 -1.48,-2.38 -3.23,-5.18 -5.01,-7.87 -5.85,-8.47 -11.65,-15.61 -17.86,-21.85 -29.63,-29.670005 -69.11,-46.040004 -111.11,-46.040004 h -0.03" /><path
         id="path24"
         style="fill:#333333;fill-opacity:1;fill-rule:nonzero;stroke:none"
         d="m 642.20996,52.379916 c -42.05,0 -81.56,16.37 -111.28,46.100004 -29.7,29.68 -46.04,69.14999 -46.06,111.16999 -0.03,41.97 16.32,81.44 45.99,111.06 6.06,6.1 12.93,11.69 22.34,18.2 2.33,1.58 4.84,3.11 7.47,4.63 5.78,3.45 11.33,6.38 17.1,9.03 3.08,1.39 6.07,2.78 9.12,3.92 5.84,2.15 12.2,4.03 18.95,5.51 0,0 5.53,1.6 6.24,1.78 l 35.56,2.61 c 4.2,-0.2 8.72,-0.8 13.45,-1.41 l 2.63,-0.35 c 1.75,-0.17 3.21,-0.31 4.68,-0.33 0.59,-0.05 1.17,-0.05 1.73,-0.1 l 1.12,-0.16 1.48,-0.14 c 2.6,-0.07 5.24,-0.14 7.85,-0.14 60.22,0.02 119.68,25.67 163.11,70.4 43.34,44.55 67.21,104.6 65.51,164.62 l -0.22,7.33 -0.65,0.81 c -0.03,0.25 -0.03,0.54 -0.06,0.8 -0.09,1.71 -0.19,3.44 -0.36,5.17 l -0.58,5.04 c -0.33,2.77 -0.69,5.5 -0.79,8.28 l 2.44,34.04 c 0.19,0.82 1.41,5.04 1.7,6.31 2,8.13 3.75,14.08 5.76,19.36 1.11,3.17 2.48,6.07 3.86,9.11 2.52,5.49 5.46,11.06 9.07,17.2 l 0.68,1.12 c 1.22,2.07 2.38,4.12 3.82,6.11 6.44,9.38 12.16,16.45 18.2,22.49 29.73,29.72 69.25004,46.09 111.28004,46.09 42,0 81.47,-16.34 111.16,-46.01 61.28,-61.3 61.28,-161.13 0,-222.49 -5.94,-5.92 -13.03,-11.65 -22.27,-18.03 -1.78,-1.22 -3.48,-2.23 -5.19,-3.26 l -2.75,-1.71 c -5.26,-3.11 -10.99,-6.11 -16.56,-8.67 -3.15,-1.41 -6.11,-2.77 -9.24,-3.94 -5.51,-2.07 -11.57,-3.83 -19.22,-5.66 -1.53,-0.36 -2.77,-0.75 -3.99,-1.12 -0.86,-0.22 -1.66,-0.48 -2.49,-0.68 l -34.95,-2.41 c -5.11,0.22 -10.65,0.97 -16.01,1.68 -1.82,0.22 -3.24,0.29 -4.63,0.36 -0.53,0.03 -1.07,0.03 -1.6,0.1 l -2.98,0.32 c -2.6,0.1 -5.18,0.15 -7.77,0.15 -60.26004,0 -119.73004,-25.68 -163.22004,-70.4 -43.3,-44.61 -67.16,-104.61 -65.4,-164.68 l 0.05,-1.76 0.34,-1.72 c 0.34,-1.78 0.41,-3.61 0.54,-5.39 0.12,-1.85 0.26,-3.66 0.46,-5.43 0.12,-1.49 0.34,-3.38 0.53,-5.24 0.32,-2.66 0.64,-5.33 0.71,-7.99 l -2.58,-34.51 c -0.2,-0.76 -1.54,-5.41 -1.54,-5.41 -1.68,-7.31 -3.55,-13.72 -5.77,-19.73999 -1.05,-2.83 -2.29,-5.55 -3.56,-8.4 l -0.43,-1 c -2.61,-5.63 -5.54,-11.18 -8.8,-16.61 -1.6,-2.69 -3.19,-5.31 -4.87,-7.8 -6.16,-8.94 -11.96,-16.05 -18.17,-22.32 -29.56,-29.570005 -68.97,-45.890004 -110.94,-45.890004 v 0" /><path
         id="path26"
         style="fill:#808080;fill-opacity:1;fill-rule:nonzero;stroke:none"
         d="m 217.60996,476.95991 c -42.02,0 -81.52,16.34 -111.21,46.02 -29.710004,29.73 -46.090004,69.23 -46.110004,111.25 -0.03,41.97 16.29,81.41 45.990004,111.08 6.09,6.1 13.18,11.84 22.3,18.13 2.37,1.6 5.06,3.24 7.74,4.85 5.43,3.21 10.98,6.16 16.91,8.88 3.04,1.39 6.06,2.76 9.27,3.95 5.78,2.12 12.16,3.99 18.8,5.48 l 4,1.12 c 0.74,0.22 1.45,0.46 2.18,0.63 l 35.59,2.56 c 4.62,-0.19 9.62,-0.85 14.85,-1.55 l 1.1,-0.15 c 1.83,-0.19 3.24,-0.27 4.68,-0.34 0.51,-0.02 1.02,-0.02 1.53,-0.1 l 1.53,-0.26 1.44,-0.06 c 2.64,-0.07 5.24,-0.12 7.85,-0.12 60.2,0 119.66,25.65 163.11,70.41 43.32,44.59 67.17,104.62 65.44,164.66999 l -0.05,1.73 -0.34,1.7 c -0.37,1.91 -0.42,3.83 -0.54,5.78 -0.09,1.58 -0.19,3.17 -0.36,4.82 l -0.54,4.85 c -0.37,2.87 -0.73,5.8 -0.8,8.72 l 2.36,33.03 0.22,0.76 v 0.65 c 0.19,0.76 1.49,5.15 1.49,5.15 1.99,8.45 3.77,14.56 5.77,19.95 1.12,2.97 2.51,5.94 3.92,9.01 2.56,5.65 5.56,11.38 9.02,17.2 l 0.53,0.9 c 1.36,2.27 2.71,4.53 4.24,6.8 6.23,9.04 11.96,16.1 17.95,22.06 29.72,29.73 69.23,46.1 111.28,46.1 42.02,0 81.51,-16.35 111.23,-46.04 61.29,-61.32 61.24,-161.12 -0.07,-222.40999 -6.07,-6.09 -13.3,-11.97 -22.15,-17.96 -2.41,-1.7 -4.48,-2.92 -6.63,-4.19 l -1.16,-0.68 c -5.77,-3.43 -11.46,-6.43 -16.81,-8.89 -3.17,-1.46 -6.14,-2.81 -9.16,-3.92 -5.9,-2.2 -12.16,-4.05 -19.22,-5.68 -1.49,-0.36 -2.83,-0.76 -4.16,-1.12 -0.81,-0.22 -1.63,-0.48 -2.47,-0.69 l -34.86,-2.43 c -4.4,0.22 -9.13,0.8 -14.08,1.44 l -2.14,0.27 c -1.61,0.19 -3.09,0.27 -4.53,0.36 -0.59,0.03 -1.17,0.03 -1.75,0.13 l -1.17,0.14 -1.54,0.12 c -2.6,0.1 -5.19,0.15 -7.8,0.15 -60.21,0 -119.68,-25.65 -163.14,-70.36 -43.34,-44.6 -67.21,-104.65 -65.5,-164.72 l 0.05,-1.76 0.31,-1.72 c 0.37,-1.76 0.44,-3.58 0.56,-5.37 0.12,-1.84 0.27,-3.65 0.46,-5.5 0.15,-1.46 0.37,-3.33 0.59,-5.19 0.29,-2.63 0.63,-5.21 0.68,-7.82 l -2.51,-34.27 c -0.19,-0.88 -0.48,-1.78 -0.75,-2.7 l -0.88,-3.07 c -1.75,-7.68 -3.6,-14.06 -5.7,-19.74 -1.12,-2.96 -2.56,-6.03 -3.99,-9.19 -2.59,-5.64 -5.51,-11.23 -8.92,-16.92 -1.63,-2.72 -3.14,-5.28 -4.78,-7.7 -6.45,-9.35 -12,-16.22 -18.07,-22.24 -29.69,-29.67 -69.13,-45.99 -111.08,-45.99 v 0" /><text
         transform="scale(1,-1)"
         id="text46"
         y="-1916.2499"
         x="1781.25"
         style="font-style:normal;font-variant:normal;font-weight:normal;font-stretch:normal;font-size:100px;line-height:1.25;font-family:sans-serif;-inkscape-font-specification:'sans-serif, Normal';font-variant-ligatures:normal;font-variant-caps:normal;font-variant-numeric:normal;font-feature-settings:normal;text-align:start;letter-spacing:0px;word-spacing:0px;writing-mode:lr-tb;text-anchor:start;fill:#000000;fill-opacity:1;stroke:none;stroke-width:7.5"
         xml:space="preserve"><tspan
           style="stroke-width:7.5"
           y="-1826.1744"
           x="1781.25"
           id="tspan44" /></text>
<g
         id="text50"
         style="font-style:normal;font-variant:normal;font-weight:bold;font-stretch:normal;font-size:720px;line-height:1.25;font-family:'Noto Serif Devanagari';-inkscape-font-specification:'Noto Serif Devanagari, Bold';font-variant-ligatures:normal;font-variant-caps:normal;font-variant-numeric:normal;font-feature-settings:normal;text-align:start;letter-spacing:0px;word-spacing:0px;writing-mode:lr-tb;text-anchor:start;fill:#4d4d4d;fill-opacity:1;stroke:none;stroke-width:7.5"
         transform="matrix(1,0,0,-1,-1781.25,-3367.5001)"
         aria-label="NECTAR"><path
           id="path4616"
           style="font-style:normal;font-variant:normal;font-weight:bold;font-stretch:normal;font-size:720px;font-family:'Noto Serif Devanagari';-inkscape-font-specification:'Noto Serif Devanagari, Bold';font-variant-ligatures:normal;font-variant-caps:normal;font-variant-numeric:normal;font-feature-settings:normal;text-align:start;writing-mode:lr-tb;text-anchor:start;fill:#4d4d4d;stroke-width:7.5"
           d="m 3249.8438,-4181.1328 h 151.1718 l 190.8985,360 v -360 h 128.3203 v 524.8828 h -151.1719 l -190.8984,-360 v 360 h -128.3203 z" /><path
           id="path4618"
           style="font-style:normal;font-variant:normal;font-weight:bold;font-stretch:normal;font-size:720px;font-family:'Noto Serif Devanagari';-inkscape-font-specification:'Noto Serif Devanagari, Bold';font-variant-ligatures:normal;font-variant-caps:normal;font-variant-numeric:normal;font-feature-settings:normal;text-align:start;writing-mode:lr-tb;text-anchor:start;fill:#4d4d4d;stroke-width:7.5"
           d="m 3853.125,-4181.1328 h 365.2734 v 102.3047 h -229.9218 v 97.7343 h 216.2109 v 102.3047 h -216.2109 v 120.2344 h 237.6562 V -3656.25 H 3853.125 Z" /><path
           id="path4620"
           style="font-style:normal;font-variant:normal;font-weight:bold;font-stretch:normal;font-size:720px;font-family:'Noto Serif Devanagari';-inkscape-font-specification:'Noto Serif Devanagari, Bold';font-variant-ligatures:normal;font-variant-caps:normal;font-variant-numeric:normal;font-feature-settings:normal;text-align:start;writing-mode:lr-tb;text-anchor:start;fill:#4d4d4d;stroke-width:7.5"
           d="m 4761.5625,-3685.0781 q -37.2656,19.3359 -77.6953,29.1797 -40.4297,9.8437 -84.375,9.8437 -131.1328,0 -207.7735,-73.125 -76.6406,-73.4766 -76.6406,-198.9844 0,-125.8593 76.6406,-198.9843 76.6407,-73.4766 207.7735,-73.4766 43.9453,0 84.375,9.8438 40.4297,9.8437 77.6953,29.1796 v 108.6328 q -37.6172,-25.664 -74.1797,-37.6171 -36.5625,-11.9532 -76.9922,-11.9532 -72.4219,0 -113.9062,46.4063 -41.4844,46.4062 -41.4844,127.9687 0,81.211 41.4844,127.6172 41.4843,46.4063 113.9062,46.4063 40.4297,0 76.9922,-11.9532 36.5625,-11.9531 74.1797,-37.6171 z" /><path
           id="path4622"
           style="font-style:normal;font-variant:normal;font-weight:bold;font-stretch:normal;font-size:720px;font-family:'Noto Serif Devanagari';-inkscape-font-specification:'Noto Serif Devanagari, Bold';font-variant-ligatures:normal;font-variant-caps:normal;font-variant-numeric:normal;font-feature-settings:normal;text-align:start;writing-mode:lr-tb;text-anchor:start;fill:#4d4d4d;stroke-width:7.5"
           d="m 4811.4844,-4181.1328 h 483.75 v 102.3047 h -174.0235 v 422.5781 h -135.3515 v -422.5781 h -174.375 z" /><path
           id="path4624"
           style="font-style:normal;font-variant:normal;font-weight:bold;font-stretch:normal;font-size:720px;font-family:'Noto Serif Devanagari';-inkscape-font-specification:'Noto Serif Devanagari, Bold';font-variant-ligatures:normal;font-variant-caps:normal;font-variant-numeric:normal;font-feature-settings:normal;text-align:start;writing-mode:lr-tb;text-anchor:start;fill:#4d4d4d;stroke-width:7.5"
           d="m 5627.1094,-3751.875 h -211.6407 l -33.3984,95.625 h -136.0547 l 194.4141,-524.8828 h 161.3672 l 194.414,524.8828 h -136.0547 z m -177.8907,-97.3828 h 143.7891 l -71.7187,-208.8281 z" /><path
           id="path4626"
           style="font-style:normal;font-variant:normal;font-weight:bold;font-stretch:normal;font-size:720px;font-family:'Noto Serif Devanagari';-inkscape-font-specification:'Noto Serif Devanagari, Bold';font-variant-ligatures:normal;font-variant-caps:normal;font-variant-numeric:normal;font-feature-settings:normal;text-align:start;writing-mode:lr-tb;text-anchor:start;fill:#4d4d4d;stroke-width:7.5"
           d="m 6057.7734,-3948.3984 q 42.5391,0 60.8203,-15.8204 18.6329,-15.8203 18.6329,-52.0312 0,-35.8594 -18.6329,-51.3281 -18.2812,-15.4688 -60.8203,-15.4688 h -56.9531 v 134.6485 z m -56.9531,93.5156 v 198.6328 h -135.3516 v -524.8828 h 206.7188 q 103.7109,0 151.875,34.8047 48.5156,34.8047 48.5156,110.039 0,52.0313 -25.3125,85.4297 -24.9609,33.3985 -75.5859,49.2188 27.7734,6.3281 49.5703,28.8281 22.1484,22.1484 44.6484,67.5 l 73.4766,149.0625 h -144.1406 l -63.9844,-130.4297 q -19.3359,-39.375 -39.375,-53.7891 -19.6875,-14.414 -52.7344,-14.414 z" /></g><g
         id="text50-1"
         style="font-style:normal;font-variant:normal;font-weight:normal;font-stretch:normal;font-size:720px;line-height:1.25;font-family:'Noto Serif Devanagari';-inkscape-font-specification:'Noto Serif Devanagari, Normal';font-variant-ligatures:normal;font-variant-caps:normal;font-variant-numeric:normal;font-feature-settings:normal;text-align:start;letter-spacing:0px;word-spacing:0px;writing-mode:lr-tb;text-anchor:start;fill:#999999;fill-opacity:1;stroke:none;stroke-width:7.5"
         transform="matrix(1,0,0,-1,-1781.25,-3367.5001)"
         aria-label="API"><path
           id="path4629"
           style="font-style:normal;font-variant:normal;font-weight:normal;font-stretch:normal;font-size:720px;font-family:'Noto Serif Devanagari';-inkscape-font-specification:'Noto Serif Devanagari, Normal';font-variant-ligatures:normal;font-variant-caps:normal;font-variant-numeric:normal;font-feature-settings:normal;text-align:start;writing-mode:lr-tb;text-anchor:start;fill:#999999;stroke-width:7.5"
           d="m 6591.9141,-4107.627 -96.3282,261.211 h 193.0078 z m -40.0782,-69.9609 h 80.5078 l 200.0391,524.8828 h -73.8281 l -47.8125,-134.6484 h -236.6016 l -47.8125,134.6484 h -74.8828 z" /><path
           id="path4631"
           style="font-style:normal;font-variant:normal;font-weight:normal;font-stretch:normal;font-size:720px;font-family:'Noto Serif Devanagari';-inkscape-font-specification:'Noto Serif Devanagari, Normal';font-variant-ligatures:normal;font-variant-caps:normal;font-variant-numeric:normal;font-feature-settings:normal;text-align:start;writing-mode:lr-tb;text-anchor:start;fill:#999999;stroke-width:7.5"
           d="m 6979.6875,-4119.2285 v 197.2265 h 89.2969 q 49.5703,0 76.6406,-25.664 27.0703,-25.6641 27.0703,-73.125 0,-47.1094 -27.0703,-72.7735 -27.0703,-25.664 -76.6406,-25.664 z m -71.0156,-58.3594 h 160.3125 q 88.2422,0 133.2422,40.0781 45.3515,39.7266 45.3515,116.7188 0,77.6953 -45.3515,117.4219 -45,39.7265 -133.2422,39.7265 h -89.2969 v 210.9375 h -71.0156 z" /><path
           id="path4633"
           style="font-style:normal;font-variant:normal;font-weight:normal;font-stretch:normal;font-size:720px;font-family:'Noto Serif Devanagari';-inkscape-font-specification:'Noto Serif Devanagari, Normal';font-variant-ligatures:normal;font-variant-caps:normal;font-variant-numeric:normal;font-feature-settings:normal;text-align:start;writing-mode:lr-tb;text-anchor:start;fill:#999999;stroke-width:7.5"
           d="m 7343.2031,-4177.5879 h 71.0156 v 524.8828 h -71.0156 z" /></g></g></g></svg>